<svg height="512" viewBox="0 0 128 128" width="512" fill="#3080E8" xmlns="http://www.w3.org/2000/svg"><g><path d="m122.737 5.263a1.751 1.751 0 0 0 -2.082-.3l-22.82 12.58a71.455 71.455 0 0 0 -16.1 12.106l-39.3 39.3-7.6-7.6a1.749 1.749 0 0 0 -2.475 0 10.762 10.762 0 0 0 0 15.2l2.658 2.658-1.4 1.4a1.741 1.741 0 0 0 -2.44 2.439l-1.8 1.8a1.742 1.742 0 0 0 -2.441 2.44l-1.8 1.8a1.741 1.741 0 0 0 -2.44 2.439l-1.8 1.8a1.741 1.741 0 0 0 -2.44 2.439l-4.2 4.2a11.75 11.75 0 1 0 13.785 13.785l4.2-4.2a1.742 1.742 0 0 0 2.44-2.439l1.8-1.8a1.742 1.742 0 0 0 2.44-2.439l1.8-1.8a1.741 1.741 0 0 0 2.439-2.438l1.8-1.8a1.742 1.742 0 0 0 2.439-2.433l1.4-1.4 2.649 2.649a10.76 10.76 0 0 0 15.2 0 1.749 1.749 0 0 0 0-2.475l-7.6-7.6 39.3-39.3a71.486 71.486 0 0 0 12.107-16.1l12.58-22.82a1.748 1.748 0 0 0 -.299-2.091zm-97.937 97.937a11.667 11.667 0 0 0 -5.7-3.133l1.8-1.8 8.835 8.835-1.8 1.8a11.665 11.665 0 0 0 -3.135-5.702zm-1.429-7.4 1.768-1.767 8.835 8.835-1.768 1.767zm4.244-4.241 1.768-1.768 8.835 8.835-1.769 1.767zm4.243-4.242 1.768-1.767 8.835 8.834-1.761 1.761zm-21.2 30.028a8.25 8.25 0 1 1 11.667 0 8.258 8.258 0 0 1 -11.663-.007zm34.282-25.445-8.834-8.835 1.384-1.384 8.835 8.835zm8.984 1.265-19.092-19.089a7.262 7.262 0 0 1 -1.087-8.864l29.043 29.043a7.265 7.265 0 0 1 -8.864-1.087zm53.463-64.693a67.929 67.929 0 0 1 -11.514 15.32l-39.3 39.3-4.594-4.592 31.528-31.533a1.749 1.749 0 1 0 -2.474-2.474l-31.533 31.528-4.595-4.595 39.3-39.3a67.926 67.926 0 0 1 15.32-11.513l17.522-9.66z"/><path d="m98.145 34.85a1.751 1.751 0 0 0 2.446-.374c1.289-1.753 2.506-3.595 3.617-5.473a1.75 1.75 0 0 0 -3.013-1.782c-1.051 1.779-2.2 3.522-3.424 5.182a1.751 1.751 0 0 0 .374 2.447z"/><path d="m16.5 105.757a5.743 5.743 0 1 0 4.066 1.682 5.707 5.707 0 0 0 -4.066-1.682zm1.591 7.339a2.249 2.249 0 1 1 0-3.182 2.254 2.254 0 0 1 -.005 3.186z"/></g></svg>